<?xml version="1.0" encoding="utf-8"?>
<!-- Generator: Adobe Illustrator 19.0.0, SVG Export Plug-In . SVG Version: 6.00 Build 0)  -->
<svg version="1.1" id="Layer_1" xmlns="http://www.w3.org/2000/svg" xmlns:xlink="http://www.w3.org/1999/xlink" x="0px" y="0px"
	 viewBox="-329 91 52 96" style="enable-background:new -329 91 52 96;" xml:space="preserve">
<path d="M-281,143h4v-4h-4v-4h-4v-4h-4v-4h-4v-4h-4v-4h-4v-4h-4v-4h-4v-4h-4v-4h-4v-4h-4v-4h-4v-4h-4v72h4v-4h4v-4h4v-4h4v-4h4v8h4
	v8h4v8h4v8h4v4h4v4h4v-4h4v-4h4v-8h-4v-8h-4v-8h-4v-8h-4v-4H-281z"/>
</svg>
