<?xml version="1.0" encoding="utf-8"?>
<!-- Generator: Adobe Illustrator 19.0.0, SVG Export Plug-In . SVG Version: 6.00 Build 0)  -->
<svg version="1.1" id="Layer_1" xmlns="http://www.w3.org/2000/svg" xmlns:xlink="http://www.w3.org/1999/xlink" x="0px" y="0px"
	 viewBox="-323.2 115.9 98.5 94.1" style="enable-background:new -323.2 115.9 98.5 94.1;" xml:space="preserve">
<path d="M-265.2,191.5c-1.1,0-2.1-0.7-2.5-1.9l-2.5-8.6c-0.4-1.4,0.4-2.8,1.8-3.2c1.4-0.4,2.8,0.4,3.2,1.8l2.5,8.6
	c0.4,1.4-0.4,2.8-1.8,3.2C-264.7,191.5-264.9,191.5-265.2,191.5z"/>
<path d="M-282.1,191.8c-0.3,0-0.6-0.1-0.9-0.2c-1.3-0.5-2-2-1.5-3.3l3.1-8.4c0.5-1.3,2-2,3.3-1.5c1.3,0.5,2,2,1.5,3.3l-3.1,8.4
	C-280.1,191.1-281.1,191.8-282.1,191.8z"/>
<path d="M-296,182c-0.8,0-1.6-0.4-2.1-1.1c-0.8-1.2-0.5-2.8,0.7-3.6l7.5-5c1.2-0.8,2.8-0.5,3.6,0.7c0.8,1.2,0.5,2.8-0.7,3.6l-7.5,5
	C-295,181.9-295.5,182-296,182z"/>
<path d="M-292.5,166.3C-292.5,166.3-292.5,166.3-292.5,166.3l-9.1-0.3c-1.4-0.1-2.5-1.2-2.5-2.7c0.1-1.4,1.3-2.5,2.7-2.5l9,0.3
	c1.4,0.1,2.5,1.2,2.5,2.7C-289.9,165.2-291.1,166.3-292.5,166.3z"/>
<path d="M-289.3,155.3c-0.6,0-1.1-0.2-1.6-0.5l-7.1-5.5c-1.1-0.9-1.3-2.5-0.4-3.6c0.9-1.1,2.5-1.3,3.6-0.4l7.1,5.5
	c1.1,0.9,1.3,2.5,0.4,3.6C-287.8,155-288.6,155.3-289.3,155.3z"/>
<path d="M-280.4,148.2c-1.1,0-2.1-0.7-2.5-1.9l-2.5-8.6c-0.4-1.4,0.4-2.8,1.8-3.2c1.4-0.4,2.8,0.4,3.2,1.8l2.5,8.6
	c0.4,1.4-0.4,2.8-1.8,3.2C-279.9,148.2-280.1,148.2-280.4,148.2z"/>
<path d="M-269,147.8c-0.3,0-0.6-0.1-0.9-0.2c-1.3-0.5-2-2-1.5-3.3l3.1-8.4c0.5-1.3,2-2,3.3-1.5s2,2,1.5,3.3l-3.1,8.4
	C-266.9,147.2-267.9,147.8-269,147.8z"/>
<path d="M-259.5,154.1c-0.8,0-1.6-0.4-2.1-1.1c-0.8-1.2-0.5-2.8,0.7-3.6l7.5-5c1.2-0.8,2.8-0.5,3.6,0.7c0.8,1.2,0.5,2.8-0.7,3.6
	l-7.5,5C-258.5,154-259,154.1-259.5,154.1z"/>
<path d="M-246.6,165.2C-246.6,165.2-246.6,165.2-246.6,165.2l-9.1-0.3c-1.4-0.1-2.5-1.2-2.5-2.7c0.1-1.4,1.3-2.5,2.7-2.5l9,0.3
	c1.4,0.1,2.5,1.2,2.5,2.7C-244,164.1-245.2,165.2-246.6,165.2z"/>
<g>
	<g>
		<path d="M-261.6,201.3c1.4-0.4,2.2-1.8,1.8-3.2l-0.1-0.4c-0.4-1.4-1.8-2.2-3.2-1.8c-1.4,0.4-2.2,1.8-1.8,3.2l0.1,0.4
			c0.3,1.1,1.4,1.9,2.5,1.9C-262.1,201.4-261.9,201.4-261.6,201.3z"/>
		<path d="M-257.5,206.4c-0.4-1.4-1.8-2.2-3.2-1.8c-1.4,0.4-2.2,1.8-1.8,3.2l0.1,0.4c0.3,1.1,1.4,1.9,2.5,1.9c0.2,0,0.5,0,0.7-0.1
			c1.4-0.4,2.2-1.8,1.8-3.2L-257.5,206.4z"/>
		<path d="M-284.6,196c-1.3-0.5-2.8,0.2-3.3,1.5l-0.1,0.4c-0.5,1.3,0.2,2.8,1.5,3.3c0.3,0.1,0.6,0.2,0.9,0.2c1,0,2-0.6,2.4-1.7
			l0.1-0.4C-282.6,198-283.3,196.5-284.6,196z"/>
		<path d="M-287.7,204.5c-1.3-0.5-2.8,0.2-3.3,1.5l-0.1,0.4c-0.5,1.3,0.2,2.8,1.5,3.3c0.3,0.1,0.6,0.2,0.9,0.2c1,0,2-0.6,2.4-1.7
			l0.1-0.4C-285.7,206.4-286.4,205-287.7,204.5z"/>
		<path d="M-305.6,182.8l-0.4,0.2c-1.2,0.8-1.5,2.4-0.7,3.6c0.5,0.7,1.3,1.1,2.1,1.1c0.5,0,1-0.1,1.4-0.4l0.4-0.2
			c1.2-0.8,1.5-2.4,0.7-3.6C-302.8,182.3-304.4,182-305.6,182.8z"/>
		<path d="M-313,187.8l-0.4,0.2c-1.2,0.8-1.5,2.4-0.7,3.6c0.5,0.7,1.3,1.1,2.1,1.1c0.5,0,1-0.1,1.4-0.4l0.4-0.2
			c1.2-0.8,1.5-2.4,0.7-3.6C-310.3,187.3-311.9,187-313,187.8z"/>
		<path d="M-320.2,160.1l-0.4,0c-1.4-0.1-2.6,1.1-2.7,2.5c-0.1,1.4,1.1,2.6,2.5,2.7l0.4,0c0,0,0.1,0,0.1,0c1.4,0,2.5-1.1,2.6-2.5
			C-317.6,161.4-318.7,160.2-320.2,160.1z"/>
		<path d="M-311.2,160.4l-0.4,0c-1.4-0.1-2.6,1.1-2.7,2.5c-0.1,1.4,1.1,2.6,2.5,2.7l0.4,0c0,0,0.1,0,0.1,0c1.4,0,2.5-1.1,2.6-2.5
			C-308.7,161.7-309.8,160.5-311.2,160.4z"/>
		<path d="M-309.7,133.5l-0.3-0.3c-1.1-0.9-2.7-0.7-3.6,0.4c-0.9,1.1-0.7,2.7,0.4,3.6l0.3,0.3c0.5,0.4,1,0.5,1.6,0.5
			c0.8,0,1.5-0.3,2-1C-308.3,136-308.5,134.4-309.7,133.5z"/>
		<path d="M-306.1,142.9l0.3,0.3c0.5,0.4,1,0.5,1.6,0.5c0.8,0,1.5-0.3,2-1c0.9-1.1,0.7-2.7-0.4-3.6l-0.3-0.3
			c-1.1-0.9-2.7-0.7-3.6,0.4C-307.4,140.4-307.2,142-306.1,142.9z"/>
		<path d="M-286.4,124.7c-1.4,0.4-2.2,1.8-1.8,3.2l0.1,0.4c0.3,1.1,1.4,1.9,2.5,1.9c0.2,0,0.5,0,0.7-0.1c1.4-0.4,2.2-1.8,1.8-3.2
			l-0.1-0.4C-283.6,125.1-285,124.3-286.4,124.7z"/>
		<path d="M-290.5,119.6c0.3,1.1,1.4,1.9,2.5,1.9c0.2,0,0.5,0,0.7-0.1c1.4-0.4,2.2-1.8,1.8-3.2l-0.1-0.4c-0.4-1.4-1.8-2.2-3.2-1.8
			c-1.4,0.4-2.2,1.8-1.8,3.2L-290.5,119.6z"/>
		<path d="M-263.4,130c0.3,0.1,0.6,0.2,0.9,0.2c1,0,2-0.6,2.4-1.7l0.1-0.4c0.5-1.3-0.2-2.8-1.5-3.3c-1.3-0.5-2.8,0.2-3.3,1.5
			l-0.1,0.4C-265.4,128-264.7,129.5-263.4,130z"/>
		<path d="M-258.4,116.3c-1.3-0.5-2.8,0.2-3.3,1.5l-0.1,0.4c-0.5,1.3,0.2,2.8,1.5,3.3c0.3,0.1,0.6,0.2,0.9,0.2c1,0,2-0.6,2.4-1.7
			l0.1-0.4C-256.4,118.3-257,116.8-258.4,116.3z"/>
		<path d="M-237.5,133.7l-0.4,0.2c-1.2,0.8-1.5,2.4-0.7,3.6c0.5,0.7,1.3,1.1,2.1,1.1c0.5,0,1-0.1,1.4-0.4l0.4-0.2
			c1.2-0.8,1.5-2.4,0.7-3.6C-234.7,133.2-236.3,132.9-237.5,133.7z"/>
		<path d="M-244.9,138.7l-0.4,0.2c-1.2,0.8-1.5,2.4-0.7,3.6c0.5,0.7,1.3,1.1,2.1,1.1c0.5,0,1-0.1,1.4-0.4l0.4-0.2
			c1.2-0.8,1.5-2.4,0.7-3.6C-242.2,138.2-243.8,137.9-244.9,138.7z"/>
		<path d="M-227.2,160.8l-0.4,0c-1.4-0.1-2.6,1.1-2.7,2.5c-0.1,1.4,1.1,2.6,2.5,2.7l0.4,0c0,0,0.1,0,0.1,0c1.4,0,2.5-1.1,2.6-2.5
			C-224.7,162-225.8,160.8-227.2,160.8z"/>
		<path d="M-236.2,160.4l-0.4,0c-1.4-0.1-2.6,1.1-2.7,2.5c-0.1,1.4,1.1,2.6,2.5,2.7l0.4,0c0,0,0.1,0,0.1,0c1.4,0,2.5-1.1,2.6-2.5
			C-233.7,161.7-234.8,160.5-236.2,160.4z"/>
		<path d="M-234.8,188.7l-0.3-0.3c-1.1-0.9-2.7-0.7-3.6,0.4c-0.9,1.1-0.7,2.7,0.4,3.6l0.3,0.3c0.5,0.4,1,0.5,1.6,0.5
			c0.8,0,1.5-0.3,2-1C-233.5,191.2-233.7,189.6-234.8,188.7z"/>
		<path d="M-241.9,183.1l-0.3-0.3c-1.1-0.9-2.7-0.7-3.6,0.4c-0.9,1.1-0.7,2.7,0.4,3.6l0.3,0.3c0.5,0.4,1,0.5,1.6,0.5
			c0.8,0,1.5-0.3,2-1C-240.6,185.6-240.8,184-241.9,183.1z"/>
	</g>
	<path d="M-251.6,181.4c-0.6,0-1.1-0.2-1.6-0.5l-7.1-5.5c-1.1-0.9-1.3-2.5-0.4-3.6c0.9-1.1,2.5-1.3,3.6-0.4l7.1,5.5
		c1.1,0.9,1.3,2.5,0.4,3.6C-250.1,181.1-250.8,181.4-251.6,181.4z"/>
</g>
</svg>
